<svg width="122" height="72" viewBox="0 0 122 72" fill="none" xmlns="http://www.w3.org/2000/svg">
<rect width="122" height="72" fill="#E2E5EB"/>
<path fill-rule="evenodd" clip-rule="evenodd" d="M43 19.5C43 18.6716 43.6716 18 44.5 18H77.5C78.3284 18 79 18.6716 79 19.5V52.5C79 53.3284 78.3284 54 77.5 54H44.5C43.6716 54 43 53.3284 43 52.5V19.5ZM46 21V41.3786L50.9392 36.4393C51.525 35.8536 52.4748 35.8536 53.0605 36.4393L60.9999 44.3787L76 29.3786V21H46ZM46 51V45.6212L51.9999 39.6213L59.9392 47.5607C60.525 48.1464 61.4748 48.1464 62.0605 47.5607L76 33.6212V51H46ZM51.25 28.5C52.4926 28.5 53.5 27.4926 53.5 26.25C53.5 25.0074 52.4926 24 51.25 24C50.0074 24 49 25.0074 49 26.25C49 27.4926 50.0074 28.5 51.25 28.5Z" fill="#CED3DB"/>
</svg>
