<svg width="534" height="44" viewBox="0 0 534 44" fill="none" xmlns="http://www.w3.org/2000/svg">
<path fill-rule="evenodd" clip-rule="evenodd" d="M145.443 7.55249C151.24 7.55249 155.939 12.2568 155.939 18.06V25.7216C155.939 31.5248 151.24 36.448 145.443 36.448C139.646 36.448 134.947 31.7437 134.947 25.9406V18.06C134.947 12.2568 139.646 7.55249 145.443 7.55249ZM145.443 12.8062C142.545 12.8062 140.195 15.1589 140.195 18.0611V25.9394C140.195 28.8416 142.545 31.1943 145.443 31.1943C148.342 31.1943 150.691 28.8416 150.691 25.9394V18.0611C150.691 15.1589 148.342 12.8062 145.443 12.8062Z" fill="white"/>
<path d="M169.934 7.55249C164.5 7.55249 160.094 11.1788 160.094 15.652C160.094 17.7267 161.042 19.6192 162.6 21.0524C164.402 22.709 167.02 23.7515 169.934 23.7515C172.865 23.8514 175.182 25.6693 175.182 27.4729C175.182 29.3283 173 31.1943 169.934 31.1943C166.868 31.1943 164.686 29.3283 164.686 27.4729C164.686 27.4075 164.695 25.5027 164.695 25.5027L159.692 25.5026C159.526 26.1367 159.438 26.796 159.438 27.4729C159.438 32.4297 164.137 36.448 169.934 36.448C175.731 36.448 180.43 32.4297 180.43 27.4729C180.43 24.9564 179.219 22.6818 177.268 21.052C175.376 19.4717 172.788 18.4978 169.934 18.4978C167.247 18.4637 165.342 16.9567 165.342 15.652C165.342 14.3323 167.196 12.8062 169.934 12.8062C172.672 12.8062 174.526 14.3323 174.526 15.652C174.526 15.7963 174.504 15.943 174.461 16.0899L179.76 16.09C179.77 15.945 179.774 15.7989 179.774 15.652C179.774 11.1788 175.369 7.55249 169.934 7.55249Z" fill="white"/>
<path d="M115.63 7.99029V30.7564H127.876V36.0102H110.382V7.99029H115.63Z" fill="white"/>
<path d="M94.6376 30.7564V7.99029H89.3895V36.0102H106.883V30.7564H94.6376Z" fill="white"/>
<path fill-rule="evenodd" clip-rule="evenodd" d="M85.7985 36.0102L76.1951 7.99029H69.2888L59.558 36.0102H64.8061L66.5699 30.7565H78.7865L80.5504 36.0102H85.7985ZM77.0226 25.5027L72.6782 12.563L68.3338 25.5027H77.0226Z" fill="white"/>
<path fill-rule="evenodd" clip-rule="evenodd" d="M15.9161 7.99029C21.713 7.99029 26.4123 12.6946 26.4123 18.4977V25.5027C26.4123 31.3058 21.713 36.0102 15.9161 36.0102H5.41992V7.99029H15.9161ZM10.668 30.7565H15.9161C18.8145 30.7565 21.1642 28.4043 21.1642 25.5027V18.4977C21.1642 15.5962 18.8145 13.244 15.9161 13.244H10.668V30.7565Z" fill="white"/>
<path d="M50.9034 7.99029H56.1515V36.0102H50.9034V15.652L43.0312 23.7515L35.1591 15.652V36.0102H29.911V7.99029H35.1591L43.0312 16.3087L50.9034 7.99029Z" fill="white"/>
<path d="M189.036 9.45473C189.72 10.1391 190.062 10.9644 190.062 11.9307C190.062 12.9255 189.712 13.7635 189.012 14.4447C188.331 15.1037 187.513 15.4332 186.56 15.4332C185.574 15.4332 184.744 15.0958 184.069 14.4209C183.395 13.7461 183.057 12.916 183.057 11.9307C183.057 10.9074 183.421 10.0567 184.15 9.37869C184.835 8.74505 185.638 8.42822 186.56 8.42822C187.526 8.42822 188.351 8.77039 189.036 9.45473ZM186.56 9.02702C185.755 9.02702 185.069 9.3185 184.502 9.90145C183.944 10.4717 183.665 11.1482 183.665 11.9307C183.665 12.7418 183.949 13.4309 184.516 13.998C185.08 14.5651 185.761 14.8487 186.56 14.8487C187.355 14.8487 188.034 14.5635 188.598 13.9932C189.162 13.4198 189.444 12.7323 189.444 11.9307C189.444 11.1513 189.164 10.4749 188.603 9.90145C188.036 9.3185 187.355 9.02702 186.56 9.02702ZM186.042 12.5057V13.8792H185.025V9.9965C185.265 9.9965 185.625 9.99808 186.103 10.0013C186.585 10.0013 186.853 10.0028 186.907 10.006C187.214 10.0282 187.469 10.0947 187.672 10.2056C188.017 10.3957 188.19 10.7046 188.19 11.1323C188.19 11.4586 188.098 11.6947 187.914 11.8404C187.733 11.9862 187.51 12.0733 187.244 12.1018C187.488 12.1525 187.672 12.2269 187.795 12.3252C188.023 12.5089 188.137 12.7988 188.137 13.1948V13.5418C188.137 13.5798 188.139 13.6178 188.142 13.6558C188.148 13.6938 188.158 13.7319 188.171 13.7699L188.204 13.8792H187.234C187.203 13.7556 187.182 13.5766 187.173 13.3422C187.163 13.1077 187.143 12.9493 187.111 12.8669C187.06 12.7307 186.965 12.6356 186.826 12.5818C186.75 12.5501 186.634 12.5295 186.479 12.52L186.255 12.5057H186.042ZM186.436 11.8071C186.674 11.8071 186.859 11.7596 186.992 11.6646C187.125 11.5695 187.192 11.4159 187.192 11.2036C187.192 10.9913 187.087 10.844 186.878 10.7616C186.739 10.7078 186.542 10.6808 186.289 10.6808H186.042V11.8071H186.436Z" fill="white"/>
<path d="M210.947 8.62103H214.556V35H210.947V8.62103ZM219.943 15.768H223.014V18.4974C223.924 17.3721 224.887 16.5641 225.905 16.0732C226.923 15.5824 228.054 15.337 229.299 15.337C232.028 15.337 233.872 16.2887 234.83 18.1922C235.356 19.2337 235.62 20.7241 235.62 22.6635V35H232.334V22.879C232.334 21.7058 232.16 20.76 231.813 20.0417C231.238 18.8446 230.197 18.246 228.688 18.246C227.922 18.246 227.294 18.3238 226.803 18.4795C225.917 18.7428 225.139 19.2696 224.468 20.0597C223.93 20.6942 223.577 21.3526 223.409 22.035C223.253 22.7054 223.176 23.6691 223.176 24.9261V35H219.943V15.768ZM239.57 23.0944H248.585V26.4165H239.57V23.0944ZM254.583 28.9664C254.678 30.0438 254.948 30.8699 255.391 31.4445C256.205 32.486 257.617 33.0068 259.628 33.0068C260.826 33.0068 261.879 32.7494 262.789 32.2346C263.699 31.7079 264.154 30.8998 264.154 29.8104C264.154 28.9844 263.789 28.3559 263.058 27.9249C262.591 27.6615 261.67 27.3563 260.293 27.0091L257.725 26.3626C256.085 25.9556 254.876 25.5007 254.098 24.9979C252.709 24.124 252.015 22.9149 252.015 21.3706C252.015 19.5509 252.667 18.0784 253.972 16.9531C255.289 15.8278 257.055 15.2652 259.269 15.2652C262.166 15.2652 264.255 16.1151 265.536 17.8151C266.338 18.8925 266.727 20.0537 266.704 21.2987H263.651C263.591 20.5685 263.334 19.9041 262.879 19.3055C262.136 18.4555 260.85 18.0305 259.018 18.0305C257.797 18.0305 256.869 18.264 256.235 18.7309C255.612 19.1978 255.301 19.8143 255.301 20.5805C255.301 21.4185 255.714 22.0889 256.54 22.5916C257.019 22.8909 257.725 23.1543 258.659 23.3818L260.796 23.9025C263.118 24.4652 264.674 25.0099 265.465 25.5366C266.722 26.3626 267.35 27.6615 267.35 29.4333C267.35 31.1452 266.698 32.6237 265.393 33.8687C264.1 35.1137 262.124 35.7362 259.467 35.7362C256.606 35.7362 254.577 35.0898 253.379 33.7969C252.194 32.492 251.56 30.8818 251.476 28.9664H254.583ZM271.696 10.3988H274.964V15.768H278.034V18.4076H274.964V30.9597C274.964 31.6301 275.191 32.079 275.646 32.3064C275.898 32.4381 276.317 32.504 276.903 32.504C277.059 32.504 277.226 32.504 277.406 32.504C277.586 32.492 277.795 32.474 278.034 32.4501V35C277.663 35.1077 277.274 35.1856 276.867 35.2334C276.472 35.2813 276.041 35.3053 275.574 35.3053C274.066 35.3053 273.042 34.9222 272.504 34.156C271.965 33.3779 271.696 32.3723 271.696 31.1392V18.4076H269.092V15.768H271.696V10.3988ZM288.916 32.917C291.059 32.917 292.526 32.1089 293.316 30.4928C294.118 28.8647 294.519 27.057 294.519 25.0697C294.519 23.274 294.232 21.8135 293.657 20.6882C292.747 18.9164 291.179 18.0305 288.952 18.0305C286.977 18.0305 285.541 18.7847 284.643 20.2931C283.745 21.8015 283.296 23.6212 283.296 25.7521C283.296 27.7992 283.745 29.5051 284.643 30.8699C285.541 32.2346 286.965 32.917 288.916 32.917ZM289.042 15.2113C291.52 15.2113 293.615 16.0373 295.327 17.6894C297.039 19.3414 297.895 21.7716 297.895 24.9799C297.895 28.0805 297.141 30.6424 295.632 32.6656C294.124 34.6887 291.784 35.7003 288.611 35.7003C285.966 35.7003 283.865 34.8085 282.308 33.0247C280.752 31.229 279.974 28.8228 279.974 25.806C279.974 22.5737 280.794 19.9998 282.434 18.0844C284.074 16.169 286.277 15.2113 289.042 15.2113ZM301.846 15.768H304.916V19.09C305.168 18.4436 305.784 17.6594 306.766 16.7376C307.747 15.8039 308.879 15.337 310.16 15.337C310.22 15.337 310.321 15.343 310.465 15.3549C310.609 15.3669 310.854 15.3909 311.201 15.4268V18.8386C311.01 18.8027 310.83 18.7788 310.663 18.7668C310.507 18.7548 310.333 18.7488 310.142 18.7488C308.514 18.7488 307.263 19.2756 306.389 20.3291C305.515 21.3706 305.078 22.5737 305.078 23.9384V35H301.846V15.768ZM322.011 15.337C323.376 15.337 324.699 15.6602 325.98 16.3067C327.261 16.9412 328.237 17.7672 328.907 18.7847C329.553 19.7544 329.984 20.8857 330.2 22.1786C330.391 23.0645 330.487 24.4771 330.487 26.4165H316.391C316.451 28.3678 316.912 29.9361 317.774 31.1213C318.635 32.2945 319.97 32.8811 321.778 32.8811C323.466 32.8811 324.813 32.3244 325.818 31.2111C326.393 30.5646 326.8 29.8164 327.039 28.9664H330.218C330.134 29.6727 329.853 30.4628 329.374 31.3368C328.907 32.1987 328.38 32.905 327.794 33.4557C326.812 34.4134 325.597 35.0599 324.148 35.3951C323.37 35.5866 322.49 35.6824 321.509 35.6824C319.114 35.6824 317.085 34.8144 315.421 33.0786C313.757 31.3308 312.925 28.8886 312.925 25.7521C312.925 22.6635 313.763 20.1555 315.439 18.2281C317.115 16.3007 319.306 15.337 322.011 15.337ZM327.165 23.8486C327.033 22.448 326.728 21.3287 326.249 20.4907C325.363 18.9344 323.885 18.1562 321.814 18.1562C320.329 18.1562 319.084 18.695 318.079 19.7724C317.073 20.8378 316.54 22.1966 316.481 23.8486H327.165ZM345.481 8.62103H357.351C359.697 8.62103 361.589 9.28545 363.025 10.6143C364.462 11.9311 365.18 13.7867 365.18 16.181C365.18 18.24 364.54 20.0358 363.259 21.5681C361.978 23.0885 360.009 23.8486 357.351 23.8486H349.055V35H345.481V8.62103ZM361.571 16.1989C361.571 14.2596 360.853 12.9427 359.416 12.2484C358.626 11.8773 357.542 11.6917 356.166 11.6917H349.055V20.8319H356.166C357.77 20.8319 359.069 20.4907 360.062 19.8083C361.068 19.1259 361.571 17.9228 361.571 16.1989ZM381.054 7.90275C385.711 7.90275 389.159 9.39917 391.398 12.392C393.145 14.7264 394.019 17.7133 394.019 21.3526C394.019 25.2912 393.02 28.5654 391.02 31.1751C388.674 34.2398 385.328 35.7722 380.982 35.7722C376.924 35.7722 373.734 34.4314 371.411 31.7498C369.34 29.1639 368.305 25.8958 368.305 21.9452C368.305 18.3777 369.191 15.325 370.962 12.7871C373.237 9.53086 376.601 7.90275 381.054 7.90275ZM381.413 32.5758C384.562 32.5758 386.836 31.4505 388.237 29.1999C389.65 26.9373 390.356 24.3395 390.356 21.4065C390.356 18.3059 389.542 15.8099 387.914 13.9184C386.298 12.0269 384.083 11.0812 381.27 11.0812C378.54 11.0812 376.314 12.0209 374.59 13.9004C372.866 15.768 372.004 18.5274 372.004 22.1786C372.004 25.0997 372.74 27.5658 374.213 29.577C375.697 31.5762 378.097 32.5758 381.413 32.5758ZM400.628 26.4883C400.711 27.9848 401.064 29.1999 401.687 30.1336C402.872 31.8815 404.961 32.7554 407.954 32.7554C409.295 32.7554 410.516 32.5638 411.617 32.1807C413.748 31.4385 414.814 30.1097 414.814 28.1943C414.814 26.7577 414.365 25.7341 413.467 25.1236C412.557 24.525 411.132 24.0043 409.193 23.5613L405.62 22.7533C403.285 22.2265 401.633 21.6459 400.663 21.0114C398.987 19.9101 398.149 18.264 398.149 16.0732C398.149 13.7029 398.969 11.7575 400.61 10.2372C402.25 8.7168 404.572 7.95662 407.577 7.95662C410.342 7.95662 412.689 8.62702 414.616 9.96781C416.555 11.2966 417.525 13.4275 417.525 16.3605H414.167C413.988 14.9479 413.605 13.8645 413.018 13.1103C411.929 11.7336 410.079 11.0452 407.469 11.0452C405.362 11.0452 403.848 11.4882 402.926 12.3741C402.004 13.2599 401.543 14.2895 401.543 15.4627C401.543 16.7556 402.082 17.7013 403.159 18.2999C403.866 18.683 405.464 19.1618 407.954 19.7365L411.653 20.5805C413.437 20.9875 414.814 21.5442 415.783 22.2505C417.459 23.4835 418.297 25.2732 418.297 27.6196C418.297 30.5407 417.232 32.6297 415.101 33.8867C412.982 35.1437 410.516 35.7722 407.703 35.7722C404.422 35.7722 401.855 34.9342 399.999 33.2582C398.143 31.5941 397.234 29.3375 397.27 26.4883H400.628ZM434.548 28.9664C434.644 30.0438 434.914 30.8699 435.357 31.4445C436.171 32.486 437.583 33.0068 439.594 33.0068C440.792 33.0068 441.845 32.7494 442.755 32.2346C443.665 31.7079 444.12 30.8998 444.12 29.8104C444.12 28.9844 443.754 28.3559 443.024 27.9249C442.557 27.6615 441.636 27.3563 440.259 27.0091L437.691 26.3626C436.051 25.9556 434.842 25.5007 434.064 24.9979C432.675 24.124 431.981 22.9149 431.981 21.3706C431.981 19.5509 432.633 18.0784 433.938 16.9531C435.255 15.8278 437.021 15.2652 439.235 15.2652C442.132 15.2652 444.221 16.1151 445.502 17.8151C446.304 18.8925 446.693 20.0537 446.67 21.2987H443.617C443.557 20.5685 443.3 19.9041 442.845 19.3055C442.102 18.4555 440.816 18.0305 438.984 18.0305C437.763 18.0305 436.835 18.264 436.201 18.7309C435.578 19.1978 435.267 19.8143 435.267 20.5805C435.267 21.4185 435.68 22.0889 436.506 22.5916C436.985 22.8909 437.691 23.1543 438.625 23.3818L440.762 23.9025C443.084 24.4652 444.64 25.0099 445.43 25.5366C446.687 26.3626 447.316 27.6615 447.316 29.4333C447.316 31.1452 446.664 32.6237 445.359 33.8687C444.066 35.1137 442.09 35.7362 439.433 35.7362C436.572 35.7362 434.543 35.0898 433.345 33.7969C432.16 32.492 431.526 30.8818 431.442 28.9664H434.548ZM459.024 15.337C460.389 15.337 461.712 15.6602 462.993 16.3067C464.273 16.9412 465.249 17.7672 465.92 18.7847C466.566 19.7544 466.997 20.8857 467.212 22.1786C467.404 23.0645 467.5 24.4771 467.5 26.4165H453.403C453.463 28.3678 453.924 29.9361 454.786 31.1213C455.648 32.2945 456.983 32.8811 458.791 32.8811C460.479 32.8811 461.825 32.3244 462.831 31.2111C463.406 30.5646 463.813 29.8164 464.052 28.9664H467.23C467.147 29.6727 466.865 30.4628 466.386 31.3368C465.92 32.1987 465.393 32.905 464.806 33.4557C463.825 34.4134 462.609 35.0599 461.161 35.3951C460.383 35.5866 459.503 35.6824 458.521 35.6824C456.127 35.6824 454.098 34.8144 452.434 33.0786C450.77 31.3308 449.938 28.8886 449.938 25.7521C449.938 22.6635 450.776 20.1555 452.452 18.2281C454.128 16.3007 456.318 15.337 459.024 15.337ZM464.178 23.8486C464.046 22.448 463.741 21.3287 463.262 20.4907C462.376 18.9344 460.898 18.1562 458.826 18.1562C457.342 18.1562 456.097 18.695 455.091 19.7724C454.086 20.8378 453.553 22.1966 453.493 23.8486H464.178ZM471.576 15.768H474.647V19.09C474.898 18.4436 475.515 17.6594 476.496 16.7376C477.478 15.8039 478.609 15.337 479.89 15.337C479.95 15.337 480.052 15.343 480.195 15.3549C480.339 15.3669 480.584 15.3909 480.932 15.4268V18.8386C480.74 18.8027 480.561 18.7788 480.393 18.7668C480.237 18.7548 480.064 18.7488 479.872 18.7488C478.244 18.7488 476.993 19.2756 476.119 20.3291C475.245 21.3706 474.808 22.5737 474.808 23.9384V35H471.576V15.768ZM485.313 15.768L490.449 31.4265L495.818 15.768H499.356L492.101 35H488.653L481.56 15.768H485.313ZM510.13 15.337C511.495 15.337 512.817 15.6602 514.098 16.3067C515.379 16.9412 516.355 17.7672 517.025 18.7847C517.672 19.7544 518.103 20.8857 518.318 22.1786C518.51 23.0645 518.606 24.4771 518.606 26.4165H504.509C504.569 28.3678 505.03 29.9361 505.892 31.1213C506.754 32.2945 508.089 32.8811 509.896 32.8811C511.584 32.8811 512.931 32.3244 513.937 31.2111C514.511 30.5646 514.918 29.8164 515.158 28.9664H518.336C518.252 29.6727 517.971 30.4628 517.492 31.3368C517.025 32.1987 516.499 32.905 515.912 33.4557C514.93 34.4134 513.715 35.0599 512.267 35.3951C511.489 35.5866 510.609 35.6824 509.627 35.6824C507.233 35.6824 505.204 34.8144 503.54 33.0786C501.876 31.3308 501.044 28.8886 501.044 25.7521C501.044 22.6635 501.882 20.1555 503.558 18.2281C505.234 16.3007 507.424 15.337 510.13 15.337ZM515.284 23.8486C515.152 22.448 514.847 21.3287 514.368 20.4907C513.482 18.9344 512.003 18.1562 509.932 18.1562C508.448 18.1562 507.203 18.695 506.197 19.7724C505.192 20.8378 504.659 22.1966 504.599 23.8486H515.284ZM522.682 15.768H525.753V19.09C526.004 18.4436 526.62 17.6594 527.602 16.7376C528.584 15.8039 529.715 15.337 530.996 15.337C531.056 15.337 531.158 15.343 531.301 15.3549C531.445 15.3669 531.69 15.3909 532.038 15.4268V18.8386C531.846 18.8027 531.666 18.7788 531.499 18.7668C531.343 18.7548 531.17 18.7488 530.978 18.7488C529.35 18.7488 528.099 19.2756 527.225 20.3291C526.351 21.3706 525.914 22.5737 525.914 23.9384V35H522.682V15.768Z" fill="white"/>
</svg>
