<svg width="20" height="20" viewBox="0 0 20 20" fill="none" xmlns="http://www.w3.org/2000/svg">
<path fill-rule="evenodd" clip-rule="evenodd" d="M9.35541 15.2687L9.99969 15.913L12.8134 13.0993C12.3601 12.6506 11.8 12.3096 11.1747 12.1177L9.35541 15.2687ZM11.9389 10.794C12.6711 11.0699 13.329 11.4976 13.8741 12.0386L14.9348 10.9779C14.2975 10.3444 13.539 9.8328 12.697 9.48093L11.9389 10.794ZM11.2152 9.04752L10.4015 10.4568C10.2688 10.4473 10.1349 10.4424 9.99976 10.4424C8.48843 10.4424 7.11948 11.052 6.12535 12.0387L5.06469 10.978C6.33026 9.71986 8.07422 8.94238 9.99976 8.94238C10.4143 8.94238 10.8204 8.97842 11.2152 9.04752ZM13.4523 8.1728C14.4053 8.59694 15.2659 9.19131 15.9954 9.91727L17.0561 8.85661C16.2343 8.03819 15.2709 7.3618 14.2059 6.86736L13.4523 8.1728ZM12.7816 6.33441L12.0046 7.68018C11.3618 7.52475 10.6904 7.44238 9.99976 7.44238C7.66 7.44238 5.54105 8.38775 4.00402 9.91734L2.94336 8.85668C4.75183 7.05564 7.24579 5.94238 9.99976 5.94238C10.9651 5.94238 11.8985 6.07917 12.7816 6.33441ZM9.52793 11.9699L8.25734 14.1707L7.18602 13.0993C7.80354 12.4882 8.61914 12.0767 9.52793 11.9699Z" fill="white"/>
<path fill-rule="evenodd" clip-rule="evenodd" d="M17.0561 8.85661C15.2476 7.05561 12.7537 5.94238 9.99976 5.94238C7.24579 5.94238 4.75183 7.05564 2.94336 8.85668L4.00402 9.91734C5.54105 8.38775 7.66 7.44238 9.99976 7.44238C12.3395 7.44238 14.4584 8.38772 15.9954 9.91727L17.0561 8.85661ZM14.9348 10.9779C13.6692 9.71983 11.9253 8.94238 9.99976 8.94238C8.07422 8.94238 6.33026 9.71986 5.06469 10.978L6.12535 12.0387C7.11948 11.052 8.48843 10.4424 9.99976 10.4424C11.5111 10.4424 12.88 11.0519 13.8741 12.0386L14.9348 10.9779ZM12.8134 13.0993C12.0908 12.384 11.0968 11.9424 9.99976 11.9424C8.90265 11.9424 7.90869 12.3841 7.18602 13.0993L9.99969 15.913L12.8134 13.0993Z" fill="white"/>
</svg>
