<svg width="20" height="20" viewBox="0 0 20 20" fill="none" xmlns="http://www.w3.org/2000/svg">
<path fill-rule="evenodd" clip-rule="evenodd" d="M8.57315 10.629L6.35024 14.4792L7.64927 15.2292L13.6493 4.83691L12.3502 4.08691L11.2355 6.01778C10.8306 5.96788 10.4182 5.94219 9.99976 5.94219C7.24579 5.94219 4.75183 7.05544 2.94336 8.85648L4.00402 9.91715C5.54105 8.38755 7.66 7.44219 9.99976 7.44219C10.1365 7.44219 10.2724 7.44541 10.4075 7.45179L9.53841 8.95715C7.79653 9.07048 6.22838 9.82095 5.06469 10.9778L6.12535 12.0385C6.79492 11.3739 7.63453 10.8804 8.57315 10.629ZM9.99969 15.9128L9.35541 15.2685L11.1747 12.1175C11.8 12.3094 12.3601 12.6504 12.8134 13.0991L9.99969 15.9128ZM13.8741 12.0384C13.329 11.4974 12.6711 11.0697 11.9389 10.7938L12.697 9.48073C13.539 9.8326 14.2975 10.3442 14.9348 10.9777L13.8741 12.0384ZM15.9954 9.91708C15.2659 9.19111 14.4053 8.59675 13.4523 8.1726L14.2059 6.86716C15.2709 7.36161 16.2343 8.038 17.0561 8.85641L15.9954 9.91708Z" fill="#7889B9"/>
</svg>
