<svg width="40" height="40" viewBox="0 0 40 40" fill="none" xmlns="http://www.w3.org/2000/svg">
<path fill-rule="evenodd" clip-rule="evenodd" d="M17.3448 15.4015C17.6592 15.9462 17.204 16.6127 16.5823 16.518L11.9304 15.8095C11.4553 15.7371 11.1699 15.2428 11.3448 14.7951L13.0571 10.4122C13.286 9.82643 14.0908 9.76549 14.4052 10.3101L15.5 12.2063C19.8046 9.72103 25.3089 11.1959 27.7942 15.5005C30.2795 19.8052 28.8046 25.3095 24.5 27.7948C20.1953 30.2801 14.691 28.8052 12.2057 24.5005C11.386 23.0807 10.9971 21.5302 10.9985 20.0007H12.4987C12.4975 21.2753 12.8216 22.5673 13.5048 23.7505C15.5758 27.3377 20.1628 28.5668 23.75 26.4957C27.3372 24.4247 28.5662 19.8377 26.4952 16.2505C24.4241 12.6634 19.8372 11.4343 16.25 13.5053L17.3448 15.4015Z" fill="#808899"/>
</svg>
