<svg width="104" height="104" viewBox="0 0 104 104" fill="none" xmlns="http://www.w3.org/2000/svg">
<path d="M91.7359 74.6864C94.0437 76.0178 94.0732 78.1777 91.7654 79.5387L62.5628 96.4922C60.255 97.8236 56.527 97.8236 54.1896 96.4922L12.2053 72.2602C9.89747 70.9288 9.89747 68.7689 12.1757 67.4079L41.3783 50.4248C43.6861 49.0934 47.4141 49.0934 49.7515 50.4248L91.7359 74.6864Z" fill="#F7F7F7"/>
<path d="M87.5346 63.0938L58.332 80.0473L16.3477 55.8153L45.5503 38.8618L87.5346 63.0938Z" fill="#F7F7F7"/>
<path d="M45.5802 26.7314L45.521 43.2922L16.3184 60.2753L16.3775 43.685L45.5802 26.7314Z" fill="#E8E8E8"/>
<path d="M87.564 50.9634L87.5048 67.5242L45.5205 43.2922L45.5797 26.7314L87.564 50.9634Z" fill="#F2F2F2"/>
<path d="M62.5623 70.3428L62.5031 86.9036C60.1953 88.235 56.4673 88.235 54.1299 86.9036L54.1891 70.3428C56.5265 71.7038 60.2544 71.7038 62.5623 70.3428Z" fill="url(#paint0_linear_1211_44547)"/>
<path d="M93.482 50.9429L93.4708 67.4945C93.4708 68.3525 92.9797 69.2402 91.8258 69.8911L62.5039 86.9032L62.5628 70.343L64.7001 68.9386L65.8276 68.289C66.5398 67.8736 67.1925 68.022 67.4299 68.6747L68.7948 72.5024C68.8335 72.6088 68.8832 72.7026 68.9424 72.7832L85.59 63.1185L85.6125 56.9695C87.6332 55.0512 93.482 50.9429 93.482 50.9429Z" fill="#E8E8E8"/>
<path d="M91.7359 48.537C94.0437 49.8684 94.0732 52.0283 91.7654 53.3893L89.3276 54.7882C88.6155 55.2036 87.9624 56.1234 87.725 57.0433L86.4198 62.4139C86.1824 63.3337 85.5296 64.2535 84.8175 64.6689L70.3971 72.977C69.9562 73.2416 69.5151 73.2732 69.2184 73.1006C69.0312 72.9917 68.8673 72.7026 68.7944 72.5022L67.7752 69.6441L80.6338 62.2358C81.3459 61.8205 81.9983 60.9005 82.2357 59.9808L83.5412 54.6102C83.7786 53.6904 84.4021 52.7705 85.1439 52.3551L87.5345 50.9631L45.5797 26.7312L16.3771 43.6847L58.3614 67.9166L61.6732 65.9153C62.1183 65.6482 62.5634 65.6186 62.8601 65.7966L67.0271 68.1703C66.7306 68.0032 66.294 68.0864 65.8573 68.3483L62.5628 70.3428C60.255 71.6742 56.527 71.6742 54.1896 70.3428L12.2053 46.1108C9.89747 44.7794 9.89747 42.6195 12.1757 41.2585L41.3783 24.2754C43.6861 22.944 47.4141 22.944 49.7515 24.2754L91.7359 48.537Z" fill="#FCFCFC"/>
<path d="M10.4706 43.6846C10.4712 43.6848 10.47 43.6844 10.4706 43.6846L10.4004 60.2454C10.4004 61.133 10.992 62.0205 12.1457 62.6714L54.13 86.9031L54.1892 70.3428L12.2052 46.1108C11.0468 45.4425 10.4698 44.5646 10.4706 43.6846Z" fill="#F2F2F2"/>
<path d="M91.6108 48.7535L91.6107 48.7534L49.6277 24.4927C49.6275 24.4925 49.6272 24.4924 49.627 24.4923C48.5046 23.8531 47.0336 23.5269 45.5538 23.5269C44.0735 23.5269 42.6104 23.8533 41.5034 24.4919C41.5033 24.4919 41.5032 24.4919 41.5032 24.492L12.3038 41.4731C12.3034 41.4734 12.303 41.4737 12.3025 41.4739C11.2137 42.1248 10.7214 42.9313 10.7206 43.6856C10.7206 43.6858 10.7206 43.6859 10.7206 43.6861L10.7206 43.6862L10.7206 43.6881L10.6504 60.2456C10.6504 60.2458 10.6504 60.2459 10.6504 60.2461C10.6506 61.0127 11.1628 61.83 12.2686 62.4538L12.2707 62.455L54.2539 86.6864C54.2541 86.6865 54.2543 86.6867 54.2546 86.6868C55.377 87.326 56.848 87.6522 58.3278 87.6522C59.8079 87.6522 61.2709 87.3259 62.3779 86.6874L91.6108 48.7535ZM91.6108 48.7535C92.7159 49.3911 93.2216 50.1921 93.2314 50.9464L93.2316 50.9681L93.2204 67.4944V67.4945C93.2204 68.2446 92.7947 69.0573 91.7026 69.6734L91.7 69.6749L62.3784 86.6871L91.6108 48.7535Z" stroke="black" stroke-opacity="0.04" stroke-width="0.5"/>
<g filter="url(#filter0_d_1211_44547)">
<path d="M56.6117 15.4973C51.9541 12.7623 47.7743 12.2868 45.1469 13.833L36.8341 18.6865C34.9312 19.7341 33.7998 21.7681 33.7998 24.6577C33.7998 30.3675 37.9804 37.5047 43.8331 42.5008C44.1915 42.7387 44.4304 43.0956 44.6693 43.4525L48.1331 49.4002L51.597 47.4969C51.8359 47.378 52.0748 47.378 52.4331 47.4969C55.5554 48.4488 58.2357 48.2158 60.0571 46.9425L67.9174 42.3575C69.7091 41.2869 70.9035 39.2647 70.9035 36.4098C70.9035 29.4036 64.5948 20.0266 56.6117 15.4973Z" fill="white"/>
</g>
<path d="M48.2526 20.3754C56.2554 24.8957 62.5859 34.2931 62.5859 41.3114C62.5859 46.9022 58.2859 49.2813 52.4331 47.497C52.0748 47.378 51.8359 47.378 51.597 47.497L48.1331 49.4002L44.6692 43.4525C44.4304 43.0957 44.1915 42.7388 43.8331 42.5009C37.9804 37.5048 33.7998 30.3676 33.7998 24.6578C33.7998 17.7584 40.2498 15.7362 48.2526 20.3754Z" fill="#D6D6D6"/>
<path d="M41.4439 26.6803C42.6384 27.3941 43.5939 28.9405 43.5939 30.3679C43.5939 31.6764 42.6384 32.2712 41.4439 31.5575C40.2495 30.8437 39.2939 29.2973 39.2939 27.8699C39.2939 26.5614 40.2495 25.9666 41.4439 26.6803Z" fill="white"/>
<path d="M48.2524 30.4868C49.4468 31.2006 50.4024 32.747 50.4024 34.1744C50.4024 35.4829 49.4468 36.0777 48.2524 35.364C47.058 34.6502 46.1024 33.1038 46.1024 31.6764C46.1024 30.3679 47.058 29.8921 48.2524 30.4868Z" fill="white"/>
<path d="M57.091 38.1C57.091 36.6725 56.1354 35.1261 54.941 34.4124C53.866 33.6987 52.9104 34.2934 52.791 35.6019C52.791 37.0294 53.7465 38.5758 54.941 39.2895C56.1354 40.0032 57.091 39.4085 57.091 38.1Z" fill="white"/>
<path d="M45.1467 13.833C47.7741 12.2868 51.9539 12.7623 56.6115 15.4973C64.5947 20.0266 70.9034 29.4036 70.9034 36.4098C70.9034 39.2647 69.7089 41.2869 67.9173 42.3575L60.0569 46.9425C61.6498 45.8289 62.5858 43.9196 62.5858 41.3113C62.5858 34.293 56.2552 24.8956 48.2524 20.3753C43.6013 17.6791 39.4747 17.2329 36.834 18.6865L45.1467 13.833Z" fill="url(#paint1_linear_1211_44547)"/>
<path d="M56.4851 15.7129L56.4851 15.7129L56.4883 15.7147C60.4425 17.9582 63.9882 21.4066 66.5446 25.1653C69.1034 28.9276 70.6535 32.9745 70.6535 36.4098C70.6535 39.1891 69.4953 41.1228 67.7904 42.1422C67.79 42.1424 67.7896 42.1426 67.7892 42.1429L59.9311 46.7265L59.9223 46.7317L59.9139 46.7376C58.1785 47.9508 55.5873 48.1965 52.5088 47.2586C52.1155 47.1285 51.8036 47.1148 51.4856 47.2731L51.4855 47.2729L51.4766 47.2778L48.2265 49.0636L44.8853 43.3266L44.8813 43.3199L44.877 43.3134L44.8654 43.296C44.6369 42.9547 44.3774 42.5668 43.9844 42.3013C41.084 39.8232 38.5986 36.8158 36.839 33.7233C35.0756 30.6243 34.0498 27.4554 34.0498 24.6577C34.0498 21.8374 35.149 19.8995 36.9547 18.9056L36.9547 18.9056L36.9602 18.9024L45.2729 14.0489L45.2736 14.0485C47.7828 12.5719 51.8551 12.9941 56.4851 15.7129Z" stroke="black" stroke-opacity="0.04" stroke-width="0.5"/>
<defs>
<filter id="filter0_d_1211_44547" x="33.7998" y="12.959" width="37.1035" height="42.4414" filterUnits="userSpaceOnUse" color-interpolation-filters="sRGB">
<feFlood flood-opacity="0" result="BackgroundImageFix"/>
<feColorMatrix in="SourceAlpha" type="matrix" values="0 0 0 0 0 0 0 0 0 0 0 0 0 0 0 0 0 0 127 0" result="hardAlpha"/>
<feOffset dy="6"/>
<feColorMatrix type="matrix" values="0 0 0 0 0 0 0 0 0 0 0 0 0 0 0 0 0 0 0.03 0"/>
<feBlend mode="normal" in2="BackgroundImageFix" result="effect1_dropShadow_1211_44547"/>
<feBlend mode="normal" in="SourceGraphic" in2="effect1_dropShadow_1211_44547" result="shape"/>
</filter>
<linearGradient id="paint0_linear_1211_44547" x1="54.1891" y1="75.2166" x2="62.4736" y2="75.2166" gradientUnits="userSpaceOnUse">
<stop stop-color="#F2F2F2"/>
<stop offset="1" stop-color="#E8E8E8"/>
</linearGradient>
<linearGradient id="paint1_linear_1211_44547" x1="59.3663" y1="19.0669" x2="66.6652" y2="39.025" gradientUnits="userSpaceOnUse">
<stop stop-color="#EBEBEB"/>
<stop offset="1" stop-color="#CCCCCC"/>
</linearGradient>
</defs>
</svg>
